# xmcd
#
# Track frame offsets:
#	150
#	14107
#	28047
#	43508
#	57656
#	73133
#	88565
#	102886
#	122652
#	135898
#	149707
#	167377
#	181722
#
# Disc length: 2623 seconds
#
# Revision: 0
# Processed by: cddbd v1.5.2PL0 Copyright (c) Steve Scherf et al.
# Submitted via: dBpowerAMP V4.0
#
DISCID=b20a3d0d
DTITLE=Tsitsanis - Litaneia
DYEAR=1992
DGENRE=Ethnic
TTITLE0=Me guvaikes mn trabiesai
TTITLE1=Afou maresei na gurvo
TTITLE2=Trakalini palia mou agapi
TTITLE3=Mortisa
TTITLE4=To Thima
TTITLE5=Ti th theleis ti tsiggana
TTITLE6=Fantazeis sa priggipessa
TTITLE7=Se laxtarisa argile mou
TTITLE8=Me kalesan ena bradi
TTITLE9=Priggipomastourides
TTITLE10=H litaneia tou magga
TTITLE11=Otan sumbei sta periJ
TTITLE12=H drosoula
EXTD=Kataigidas
EXTT0=
EXTT1=
EXTT2=
EXTT3=
EXTT4=
EXTT5=
EXTT6=
EXTT7=
EXTT8=
EXTT9=
EXTT10=
EXTT11=
EXTT12=
PLAYORDER=
